# xmcd CD database file
#
# Track frame offsets:
#	150
#	15712
#	33140
#	56170
#	68877
#	87657
#	110975
#	131530
#	150447
#	167027
#
# Disc length: 2431 seconds
#
# Revision: 1
# Processed by: cddbd v1.5.2PL0 Copyright (c) Steve Scherf et al.
# Submitted via: CDex 1.51
#
DISCID=84097d0a
DTITLE=Brownie McGhee - Facts Of Life
DYEAR=1992
DGENRE=Blues
TTITLE0=Lo Mo Cra De
TTITLE1=Big Changes
TTITLE2=Don't Abuse Your Woman
TTITLE3=Le Me Go
TTITLE4=Blues Had a Baby
TTITLE5=Get With It
TTITLE6=Facts of Life
TTITLE7=Ease My Mind
TTITLE8=Sap Sucker
TTITLE9=When the Wind Blows
EXTD=YEAR: 1992
EXTT0=
EXTT1=
EXTT2=
EXTT3=
EXTT4=
EXTT5=
EXTT6=
EXTT7=
EXTT8=
EXTT9=
PLAYORDER=
